<svg xmlns="http://www.w3.org/2000/svg" width="26" height="15">
  <path fill="#fff" d="M16.138 11.51c.956-.308 2.18 2.04 3.483 2.94.978.68 1.727.534 1.727.534l3.473-.05s1.815-.112.957-1.554c-.071-.12-.503-1.07-2.585-3.022-2.177-2.043-1.882-1.712.739-5.244 1.597-2.153 2.236-3.468 2.036-4.028-.192-.54-1.365-.4-1.365-.4L20.69.715c-.381 0-.704.119-.851.515-.003.004-.621 1.666-1.445 3.079-1.741 2.989-2.436 3.148-2.724 2.96-.661-.432-.494-1.736-.494-2.663 0-2.897.432-4.105-.846-4.417-.427-.104-.739-.172-1.828-.182-1.392-.021-2.574 0-3.244.329-.445.223-.786.712-.579.74.26.035.843.16 1.155.586.401.552.389 1.789.389 1.789s.229 3.41-.54 3.834c-.528.29-1.25-.302-2.803-3.016a25.376 25.376 0 0 1-1.392-2.922s-.116-.285-.326-.441c-.25-.185-.6-.244-.6-.244L.848.685S.29.7.085.947c-.182.218-.015.668-.015.668s2.909 6.88 6.203 10.347c3.02 3.182 6.452 2.97 6.452 2.97h1.555s.469-.053.709-.311c.224-.24.214-.691.214-.691s-.031-2.11.935-2.42z"/>
</svg>
