<svg xmlns="http://www.w3.org/2000/svg" width="160" height="65" viewBox="0 0 160 67"><path d="M77.118 50.047c-2.397.73-5.183.056-5.183-2.698 0-1.011.892-3.372 3.623-4.721-.168-1.911-1.394-2.417-2.286-1.686-3.343 2.586-7.414 12.25-6.353 19.22.055.169.055.338.055.507.168.617.335 1.237.557 1.854.557 1.574-4.905 3.316-7.97.956-1.058-.788-1.616-6.97-1.616-17.704 0-8.824 1.95-16.636 3.01-16.917 6.41-1.743 10.143 1.292 8.137 7.249-1.17 3.373-2.23 6.8-2.842 10.399 2.452-6.688 6.52-12.872 9.808-14.501 5.854-2.923 10.089.956 8.864 7.813-.056.11-.112.393-.112.449-.056.562-.566 2.302-.39 1.74-.516 1.646-.891 2.278-1.338 2.98-1.597 2.508-3.902 4.385-5.964 5.06zm-35.741 2.12c5.855-4.158 7.806-13.32 6.189-15.904-1.728-2.697-5.074 1.517-6.245 11.746-.111 1.46-.111 2.865.056 4.159zm.389 11.97c-7.75-.842-12.545-7.755-10.705-18.096C33.069 34.856 49.126 27.719 54.257 35.7c3.735 5.789-2.175 16.017-11.597 19.783l-.502.168c1.951 5.17 6.579 7.476 11.039 2.36 2.119-2.36 3.624-1.348 1.785 1.575-2.175 3.484-7.806 5.17-13.216 4.552zM16.671 50.82c1.45-10.907-.948-11.524-3.122-9.445-2.845 2.698-4.628 9.726-4.684 16.417a51.006 51.006 0 0 0 1.004 4.777c.334 1.63-4.907 3.316-7.974 1.011C.837 62.795 0 54.868 0 44.131c0-8.826 1.171-14.899 2.23-15.18 8.029-2.19 9.312 1.35 7.583 7.984a47.662 47.662 0 0 0-1.395 7.926c1.673-4.665 4.071-8.487 6.803-10.176 7.416-4.665 13.605-2.473 12.434 6.803-2.007 16.585-2.174 18.833-.39 17.54 2.231-1.574 3.68 1.239 1.618 2.643-7.919 5.34-14.219 4.16-12.212-10.851zm40.391-31.963c2.585 5.297-5.38 8.896-9.031 4.922-1.522-1.695-.823-4.963 2.873-6.742 1.846-.911 4.432-1.736 6.158 1.82zm-14.957 2.14c2.376 4.867-4.937 8.172-8.292 4.522-1.398-1.555-.755-4.56 2.636-6.193 1.697-.836 4.073-1.596 5.656 1.672zm75.573 23.917c-.682-.037-.703-6.038.112-11.688 1.005-6.951 11.935-3.357 9.093-1.906-2.975 1.52-4.429 8.718-6.266 12.087-.635 1.16-2.605 1.526-2.939 1.507zm16.591 10.567c1.716 5.573 13.577 6.818 16.153-5.355-9.124 1.028-17.013 2.436-16.153 5.355zm19.91-5.734v.056c-2.415 17.364-26.188 20.23-26.779 6.599-.269-6.167 11.593-7.95 23.398-9.088.429-11.09-15.901 5.667-21.608-4.601-5.019-9.025 14.632-17.938 16.728-16.102 6.438 5.636 3.404 6.618-1.379 8.335-9.49 3.41-5.791 4.107-4.511 3.726 7.569-2.253 14.366-1.04 14.312 8.317 1.288-.107 2.522-.163 3.757-.271 2.306-.215 2.467 2.435-.161 2.652-1.235.16-2.523.27-3.757.377z"/><g><path d="M114.263 21.716c3.794-13.77 10.323-16.974 12.108-14.332M99.606 59.035c-2.123 2.022-5.862-2.418-4.915-10.79.84-7.14 4.133-12.31 7.483-10.793 0 .45-.056.955-.056 1.461-.057 4.104-.057 8.094.167 11.636-.223 1.683-1.06 6.855-2.68 8.486zM124.746.527c-8.085-2.923-18.065 5.958-21.356 24.28a47.038 47.038 0 0 1-4.962.281c-10.538 0-8.92-13.545-5.24-15.905 2.062-1.293 1.338-5.17-5.298.562-5.854 5.114-14.107 24.673 9.868 20.683a96.956 96.956 0 0 0 4.962-.956c-.055.281-.055.562-.11.843-.112 1.405-.223 2.755-.335 4.104-5.409-2.868-14.776 1.066-16.728 11.857-1.839 10.23 2.062 17.423 8.7 18.153 3.288.338 5.854-.899 7.973-3.092.613-.617 1.116-1.404 1.56-2.302 1.116 3.09 3.011 5.112 6.134 5.505 4.35.45 8.7-1.123 11.04-3.428 3.792-3.765.668-5.619-2.175-2.416-2.62 2.923-5.352.114-6.078-2.023-1.225-3.99-1.672-12.926-.613-22.986a86.99 86.99 0 0 1 1.115-7.53c19.572-8.095 20.52-22.37 11.543-25.63z"/></g></svg>